<svg xmlns="http://www.w3.org/2000/svg"  viewBox="0 0 64 64" width="64px" height="64px"><path fill="#8b8e98" d="M32,4C16.536,4,4,16.536,4,32s12.536,28,28,28s28-12.536,28-28S47.464,4,32,4z"/><path fill="#f7a1c8" d="M32,4C16.536,4,4,16.536,4,32s12.536,28,28,28s28-12.536,28-28S47.464,4,32,4z M32,54.928	C19.337,54.928,9.072,44.663,9.072,32S19.337,9.072,32,9.072S54.928,19.337,54.928,32S44.663,54.928,32,54.928z"/><path fill="#f9dd8f" d="M9.072,32C9.072,19.337,19.337,9.072,32,9.072V8.345c0.007-2.209-1.777-4.006-3.987-4.014	c-0.243-0.001-0.485,0.02-0.724,0.064C12.044,6.983,1.783,21.44,4.372,36.686C6.364,48.42,15.556,57.613,27.29,59.605	c2.174,0.392,4.254-1.052,4.646-3.226C31.979,56.143,32,55.904,32,55.665v-0.737C19.337,54.928,9.072,44.663,9.072,32z"/><path fill="#ace3ff" d="M59.946,27.649C57.357,12.403,42.9,2.142,27.654,4.731C15.92,6.723,6.728,15.915,4.736,27.649	c-0.392,2.174,1.052,4.254,3.227,4.646c0.235,0.042,0.474,0.064,0.714,0.064h0.405C9.079,32.239,9.072,32.12,9.072,32	C9.072,19.337,19.337,9.072,32,9.072S54.928,19.337,54.928,32c0,0.12-0.007,0.239-0.009,0.359h1.077	c2.209,0.007,4.006-1.777,4.013-3.986C60.01,28.13,59.989,27.888,59.946,27.649z"/><path fill="#f9dd8f" d="M30.39,33.35l-0.001,0l0,0l0,0l-0.001,0c-0.07-0.114-0.182-0.204-0.324-0.25 c-0.882-0.282-2.862-0.845-5.058-1.045c-0.301-0.028-1.874-0.102-2.803-0.01l0,0c-1.117,0.11-2.198,0.378-3.131,0.893 c-2.92,1.608-3.937,5.143-2.271,7.897l0.001,0c0,0,0,0.001,0,0.001c0.01,0.017,0.023,0.032,0.033,0.048 c1.681,2.714,5.369,3.622,8.272,2.024c0.934-0.514,1.717-1.273,2.377-2.141l0-0.001c0.549-0.722,1.007-1.518,1.391-2.317 c0,0,0,0-0.001,0c0.917-1.915,1.396-3.831,1.581-4.702c0.03-0.141,0.005-0.279-0.065-0.394L30.39,33.35z"/><path fill="#f7a1c8" d="M33.61,33.35l0.001,0l0,0l0,0l0.001,0c0.07-0.114,0.182-0.204,0.324-0.25 c0.882-0.282,2.862-0.845,5.058-1.045c0.301-0.028,1.874-0.102,2.803-0.01l0,0c1.117,0.11,2.198,0.378,3.131,0.893 c2.92,1.608,3.937,5.143,2.271,7.897l-0.001,0c0,0,0,0.001,0,0.001c-0.01,0.017-0.023,0.032-0.033,0.048 c-1.681,2.714-5.369,3.622-8.272,2.024c-0.934-0.514-1.717-1.273-2.377-2.141l0-0.001c-0.549-0.722-1.007-1.518-1.391-2.317 l0.001,0c-0.917-1.915-1.396-3.831-1.581-4.702c-0.03-0.141-0.005-0.279,0.065-0.394L33.61,33.35z"/><path fill="#ace3ff" d="M31.974,30.375l0.001-0.001l0.001,0l0-0.001c0,0,0-0.001,0-0.001c0.134-0.006,0.267-0.06,0.376-0.162	c0.675-0.635,2.126-2.093,3.366-3.917c0.17-0.25,0.998-1.589,1.368-2.447l0,0c0.445-1.031,0.735-2.106,0.737-3.171	c0.009-3.333-2.59-5.937-5.805-5.815l0,0.001c0,0-0.001,0-0.001,0c-0.02,0.001-0.039,0.005-0.058,0.006	c-3.188,0.155-5.77,2.94-5.78,6.253c-0.003,1.066,0.281,2.119,0.72,3.117l0.001,0.001c0.366,0.83,0.839,1.617,1.353,2.34l0,0	c1.23,1.73,2.674,3.078,3.346,3.662c0.109,0.095,0.242,0.139,0.376,0.134L31.974,30.375z"/><path fill="#f283a5" d="M43.278,35.735c-0.498,1.549-1.314,2.954-2.371,4.14c-1.157,1.298-0.055,3.356,1.665,3.1	c0.131-0.019,0.222-0.038,0.268-0.049c1.454-0.349,2.761-1.226,3.577-2.544c0.01-0.016,0.022-0.03,0.032-0.046	c0,0,0-0.001,0.001-0.001l0.001,0c0.929-1.536,0.993-3.325,0.337-4.86c-0.006-0.013-0.011-0.026-0.017-0.039	C46.079,33.87,43.803,34.104,43.278,35.735z"/><path fill="#8d6c9f" d="M41.965,44.694c-1.24,0-2.469-0.315-3.553-0.912c-0.978-0.537-1.883-1.35-2.691-2.412 c-0.543-0.716-1.046-1.553-1.496-2.49c-0.991-2.072-1.489-4.136-1.657-4.927c-0.078-0.368-0.021-0.745,0.158-1.069 c0.024-0.045,0.051-0.088,0.082-0.13c0.198-0.284,0.487-0.498,0.821-0.605c0.803-0.257,2.917-0.875,5.275-1.09 c0.354-0.032,2.003-0.107,2.991-0.01c1.362,0.136,2.545,0.477,3.517,1.013c1.688,0.93,2.883,2.434,3.366,4.235 c0.462,1.726,0.206,3.521-0.722,5.055c-0.016,0.026-0.05,0.076-0.068,0.101C46.759,43.436,44.441,44.694,41.965,44.694z M34.613,33.937c0.209,0.887,0.652,2.483,1.415,4.079c0.391,0.814,0.823,1.536,1.285,2.145c0.637,0.839,1.332,1.468,2.063,1.87 c0.79,0.435,1.686,0.664,2.589,0.664c1.79,0,3.457-0.896,4.35-2.338c0.012-0.021,0.043-0.065,0.057-0.084 c0.615-1.02,0.793-2.264,0.473-3.458c-0.34-1.271-1.192-2.337-2.399-3.001c-0.735-0.406-1.659-0.666-2.747-0.773 c-0.882-0.088-2.373-0.012-2.615,0.011C37.223,33.221,35.521,33.666,34.613,33.937z"/><path fill="#efc88e" d="M20.626,35.735c0.498,1.549,1.314,2.954,2.371,4.14c1.157,1.298,0.055,3.356-1.665,3.1	c-0.131-0.019-0.222-0.038-0.268-0.049c-1.454-0.349-2.761-1.226-3.577-2.544c-0.01-0.016-0.022-0.03-0.032-0.046	c0,0,0-0.001-0.001-0.001l-0.001,0c-0.929-1.536-0.993-3.325-0.337-4.86c0.006-0.013,0.011-0.026,0.017-0.039	C17.825,33.87,20.101,34.104,20.626,35.735z"/><path fill="#8d6c9f" d="M22.036,44.694C22.035,44.694,22.035,44.694,22.036,44.694c-2.477,0-4.795-1.259-6.051-3.285 c-0.967-1.591-1.224-3.387-0.762-5.112c0.482-1.802,1.678-3.306,3.366-4.235c0.973-0.537,2.156-0.878,3.515-1.012 c0.984-0.099,2.638-0.024,2.992,0.009c2.358,0.215,4.473,0.833,5.272,1.089c0.339,0.109,0.63,0.325,0.828,0.612 c0.026,0.037,0.05,0.074,0.072,0.114c0.185,0.326,0.243,0.707,0.165,1.078c-0.168,0.792-0.667,2.855-1.658,4.927 c-0.449,0.938-0.952,1.774-1.496,2.49c-0.808,1.063-1.713,1.876-2.691,2.413C24.504,44.379,23.275,44.694,22.036,44.694z M23.357,33c-0.374,0-0.753,0.01-1.057,0.039c-1.087,0.108-2.011,0.369-2.746,0.774c-1.208,0.664-2.059,1.73-2.399,3.001 c-0.32,1.194-0.142,2.438,0.501,3.502c0.922,1.482,2.589,2.378,4.379,2.378h0c0.904,0,1.799-0.229,2.589-0.664 c0.731-0.402,1.425-1.031,2.063-1.871c0.461-0.607,0.894-1.329,1.286-2.145c0.762-1.595,1.204-3.191,1.414-4.078 c-0.905-0.27-2.609-0.716-4.472-0.886C24.757,33.036,24.062,33,23.357,33z"/><path fill="#85cbf8" d="M34.333,20.679c-1.59-0.343-3.215-0.339-4.771-0.017c-1.703,0.353-2.934-1.63-1.853-2.992	c0.082-0.103,0.144-0.174,0.176-0.208c1.029-1.085,2.442-1.778,3.991-1.826c0.019-0.001,0.037-0.004,0.056-0.004l0.001,0l0-0.001	c1.795-0.037,3.376,0.802,4.377,2.138c0.008,0.011,0.017,0.023,0.025,0.034C37.349,19.187,36.008,21.04,34.333,20.679z"/><path fill="#8d6c9f" d="M32,3C15.984,3,3,15.984,3,32s12.984,29,29,29s29-12.984,29-29S48.016,3,32,3z M32,59	C17.088,59,5,46.912,5,32S17.088,5,32,5s27,12.088,27,27S46.912,59,32,59z"/><path fill="#8d6c9f" d="M15.564,48.986c-0.26,0-0.521-0.102-0.717-0.303C10.478,44.192,8.072,38.268,8.072,32 C8.072,18.807,18.806,8.072,32,8.072c1.493,0,2.985,0.139,4.436,0.411c0.543,0.102,0.9,0.624,0.798,1.167 c-0.102,0.542-0.622,0.9-1.167,0.798c-1.329-0.249-2.697-0.376-4.066-0.376c-12.091,0-21.928,9.837-21.928,21.928 c0,5.743,2.205,11.173,6.209,15.289c0.385,0.396,0.376,1.029-0.02,1.414C16.067,48.893,15.815,48.986,15.564,48.986z M48.474,48.947c-0.25,0-0.501-0.094-0.696-0.281c-0.396-0.385-0.407-1.018-0.022-1.414c3.98-4.112,6.173-9.528,6.173-15.252 c0-7.042-3.418-13.703-9.143-17.818c-0.449-0.322-0.551-0.946-0.229-1.396c0.323-0.447,0.947-0.552,1.396-0.228 c6.247,4.489,9.976,11.757,9.976,19.441c0,6.246-2.392,12.156-6.736,16.643C48.996,48.846,48.735,48.947,48.474,48.947z M41.934,12.331c-0.146,0-0.294-0.032-0.435-0.1c-0.567-0.273-1.158-0.527-1.756-0.753c-0.517-0.195-0.778-0.772-0.583-1.289 s0.774-0.777,1.289-0.582c0.654,0.247,1.3,0.523,1.92,0.823c0.497,0.24,0.706,0.838,0.465,1.335 C42.663,12.123,42.306,12.331,41.934,12.331z"/><path fill="#8d6c9f" d="M44.959,53.118c-0.329,0-0.65-0.161-0.841-0.458l-1.084-1.681 c-0.299-0.464-0.166-1.083,0.298-1.382c0.465-0.3,1.083-0.166,1.382,0.298l1.084,1.681c0.299,0.464,0.166,1.083-0.298,1.382 C45.333,53.066,45.145,53.118,44.959,53.118z"/><path fill="#8d6c9f" d="M39.959,55.572c-0.412,0-0.798-0.257-0.943-0.668l-0.665-1.887 c-0.184-0.521,0.09-1.092,0.611-1.275c0.521-0.18,1.092,0.091,1.276,0.611l0.665,1.887c0.184,0.521-0.09,1.092-0.611,1.275 C40.182,55.554,40.069,55.572,39.959,55.572z"/><path fill="#8d6c9f" d="M34.525,56.793c-0.505,0-0.939-0.382-0.994-0.896l-0.209-1.989 c-0.058-0.549,0.341-1.041,0.89-1.099c0.549-0.057,1.042,0.34,1.099,0.89l0.209,1.989c0.058,0.549-0.341,1.041-0.89,1.099 C34.595,56.791,34.56,56.793,34.525,56.793z"/><path fill="#8d6c9f" d="M28.963,56.729c-0.042,0-0.084-0.003-0.127-0.008c-0.548-0.069-0.936-0.57-0.867-1.118 l0.251-1.984c0.069-0.547,0.578-0.927,1.118-0.866c0.548,0.069,0.936,0.57,0.867,1.118l-0.251,1.984 C29.89,56.36,29.459,56.729,28.963,56.729z"/><path fill="#8d6c9f" d="M23.557,55.391c-0.118,0-0.237-0.021-0.353-0.064c-0.517-0.194-0.777-0.771-0.583-1.288 l0.706-1.872c0.195-0.519,0.774-0.777,1.289-0.583c0.517,0.194,0.777,0.771,0.583,1.288l-0.706,1.872 C24.342,55.144,23.961,55.391,23.557,55.391z"/><path fill="#8d6c9f" d="M18.611,52.832c-0.193,0-0.388-0.056-0.56-0.172c-0.457-0.31-0.577-0.931-0.268-1.389l1.121-1.656 c0.31-0.456,0.931-0.577,1.389-0.268c0.457,0.31,0.577,0.931,0.268,1.389l-1.121,1.656 C19.247,52.678,18.932,52.832,18.611,52.832z"/><g><path fill="#8d6c9f" d="M31.807,31.435c-0.018,0-0.035-0.001-0.053-0.002c-0.366-0.011-0.715-0.15-0.989-0.397 c-0.6-0.539-2.137-1.999-3.438-3.897c-0.587-0.858-1.061-1.713-1.408-2.54c-0.517-1.23-0.768-2.42-0.745-3.538 c0.078-3.816,3.154-7.015,6.857-7.13l0.208-0.007c1.764,0,3.414,0.692,4.647,1.951c1.288,1.314,1.976,3.085,1.938,4.985 c-0.021,1.111-0.318,2.307-0.882,3.55c-0.429,0.948-1.341,2.357-1.505,2.588c-1.368,1.938-2.958,3.456-3.578,4.02 c-0.259,0.234-0.586,0.379-0.929,0.41C31.891,31.432,31.849,31.435,31.807,31.435z M32.24,15.923 c-0.017,0.001-0.11,0.004-0.127,0.005c-2.675,0.083-4.882,2.403-4.938,5.173c-0.018,0.836,0.18,1.751,0.587,2.722 c0.296,0.703,0.705,1.438,1.216,2.187c1.001,1.461,2.162,2.64,2.823,3.263c0.687-0.648,1.923-1.898,3.004-3.43 c0.167-0.236,0.97-1.492,1.317-2.258c0.45-0.995,0.687-1.926,0.703-2.765c0.028-1.359-0.458-2.618-1.366-3.546 C34.605,16.402,33.462,15.923,32.24,15.923z"/></g></svg>