<svg xmlns="http://www.w3.org/2000/svg"  viewBox="0 0 100 100" width="100px" height="100px"><path fill="#fefdef" d="M81.95,79.23l-42.88,6.79l-11.89,1.89c-3.27,0.52-6.35-1.69-6.87-4.94L13,37.56L79.62,27l7.31,45.41 C87.45,75.66,85.22,78.71,81.95,79.23z"/><path fill="#4e6e91" d="M77.273,16.333c-0.914-3.16-4.246-4.983-7.441-4.073l-53.49,15.234 c-3.196,0.91-5.045,4.21-4.131,7.369L13,37.558l65.062-18.53L77.273,16.333z"/><polygon fill="#4e6e91" points="79.62,27 72.37,36.75 62.84,38.26 70.08,28.51"/><polygon fill="#4e6e91" points="60.55,30.02 53.3,39.77 43.77,41.28 51.02,31.53"/><polygon fill="#4e6e91" points="41.39,33.06 34.18,42.8 24.71,44.3 31.95,34.56"/><polygon fill="#4e6e91" points="22.42,36.07 15.18,45.81 14.35,45.94 13,37.56"/><path fill="#fefdef" d="M78.06,19.03l-12.62-5.52l4.39-1.25c0.56-0.16,1.12-0.23,1.67-0.23c2.61,0,5.02,1.69,5.77,4.3 L78.06,19.03z"/><polygon fill="#fefdef" points="68.77,21.67 59.49,24.32 46.88,18.8 56.15,16.15 56.16,16.15"/><polygon fill="#fefdef" points="50.2,26.96 40.92,29.61 28.3,24.08 37.59,21.44"/><path fill="#fefdef" d="M31.64,32.25l-9.29,2.65l-9.76-4.28c0.72-1.47,2.04-2.64,3.75-3.13l2.68-0.76L31.64,32.25z"/><g><polygon fill="#f9e65c" points="50.88,61.38 22.02,65.1 19.3,48.2"/><path fill="#8cc78c" d="M50.88,61.38l-8.14,19.51l-16.23,2.57c-0.54,0.09-0.94-0.13-1.13-0.26 c-0.18-0.14-0.49-0.43-0.59-0.94l-0.01-0.04l-0.13-0.82L50.88,61.38z"/><polygon fill="#78a1d1" points="63.29,77.63 53.18,79.24 50.88,61.38"/><path fill="#ae5ca3" d="M82.46,73.5c-0.05,0.34-0.21,0.65-0.45,0.87L50.88,61.38l29.08-3.75l2.49,15.45L82.46,73.5z"/><path fill="#f05b6c" d="M77.76,40.87L50.88,61.38l8.41-20.03l17.6-2.79c0.27-0.04,0.53,0.15,0.57,0.42L77.76,40.87z"/><polygon fill="#f9b621" points="50.88,61.38 38.5,45.16 48.59,43.56"/><polygon fill="#ead032" points="50.88,61.38 19.3,48.2 38.5,45.16"/><polygon fill="#dce775" points="50.88,61.38 24.65,81.4 22.02,65.1"/><polygon fill="#60bd91" points="53.18,79.24 42.74,80.89 50.88,61.38"/><path fill="#c26dab" d="M82.01,74.37c-0.2,0.21-0.46,0.35-0.75,0.41l-17.97,2.85L50.88,61.38L82.01,74.37z"/><polygon fill="#ee4267" points="77.76,40.87 80.45,57.57 50.88,61.38"/><polygon fill="#f5905f" points="59.061,41.896 50.88,61.38 48.59,43.56"/></g><g><path fill="#fef598" d="M50.891,61.391L37.63,63.1c-0.087-0.606-0.13-1.222-0.13-1.85c0-1.785,0.357-3.494,0.984-5.04 L50.891,61.391z"/><path fill="#a6e6a7" d="M50.891,61.391l-5.073,12.158c-2.174-0.865-4.056-2.293-5.473-4.11L50.891,61.391z"/><path fill="#9dc4e8" d="M58.808,71.763c-1.774,1.374-3.905,2.293-6.241,2.618l-1.677-12.99L58.808,71.763z"/><path fill="#d476b9" d="M64,61.25c0,1.839-0.368,3.58-1.049,5.17l-12.06-5.03l13.023-1.677 C63.968,60.212,64,60.731,64,61.25z"/><path fill="#f27c7c" d="M61.404,53.365l-10.513,8.026l5.159-12.287C58.192,50.033,60.03,51.515,61.404,53.365z"/><path fill="#f9cf75" d="M50.891,61.391l-8.155-10.687c1.828-1.395,4.034-2.326,6.446-2.607L50.891,61.391z"/><path fill="#fae973" d="M50.891,61.391L38.484,56.21c0.909-2.196,2.38-4.099,4.251-5.505L50.891,61.391z"/><path fill="#e7f598" d="M50.891,61.391l-10.546,8.047c-1.428-1.785-2.39-3.959-2.715-6.338L50.891,61.391z"/><path fill="#84d6af" d="M52.567,74.381c-0.595,0.076-1.201,0.119-1.817,0.119c-1.741,0-3.407-0.335-4.932-0.952 l5.073-12.158L52.567,74.381z"/><path fill="#d485ba" d="M62.951,66.42c-0.898,2.12-2.336,3.959-4.143,5.343l-7.918-10.373L62.951,66.42z"/><path fill="#f27e97" d="M63.913,59.714l-13.023,1.677l10.513-8.026C62.745,55.171,63.643,57.345,63.913,59.714z"/><path fill="#fbb97f" d="M56.05,49.103l-5.159,12.287l-1.709-13.293C49.69,48.032,50.22,48,50.75,48 C52.643,48,54.428,48.389,56.05,49.103z"/></g><g><path fill="#fff9b8" d="M50.838,61.338l-8.257,1.064c-0.054-0.377-0.081-0.761-0.081-1.152c0-1.111,0.222-2.175,0.613-3.138 L50.838,61.338z"/><path fill="#beebbf" d="M50.838,61.338l-3.159,7.57c-1.354-0.539-2.526-1.428-3.408-2.559L50.838,61.338z"/><path fill="#c1ddf1" d="M55.767,67.796c-1.104,0.855-2.431,1.428-3.886,1.63l-1.044-8.088L55.767,67.796z"/><path fill="#e6a3ce" d="M59,61.25c0,1.145-0.229,2.229-0.653,3.219l-7.509-3.132l8.109-1.044 C58.98,60.603,59,60.927,59,61.25z"/><path fill="#f5b0b6" d="M57.384,56.34l-6.546,4.997l3.212-7.651C55.383,54.266,56.528,55.189,57.384,56.34z"/><path fill="#f9dea2" d="M50.838,61.338l-5.078-6.654c1.138-0.869,2.512-1.448,4.014-1.623L50.838,61.338z"/><path fill="#fef6aa" d="M50.838,61.338l-7.725-3.226c0.566-1.367,1.482-2.552,2.647-3.428L50.838,61.338z"/><path fill="#edf5bf" d="M50.838,61.338l-6.566,5.011c-0.889-1.111-1.488-2.465-1.69-3.947L50.838,61.338z"/><path fill="#aae6c8" d="M51.881,69.426c-0.37,0.047-0.748,0.074-1.131,0.074c-1.084,0-2.121-0.209-3.071-0.593l3.159-7.57 L51.881,69.426z"/><path fill="#e8acd5" d="M58.347,64.469c-0.559,1.32-1.455,2.465-2.579,3.327l-4.93-6.459L58.347,64.469z"/><path fill="#f2a0b2" d="M58.946,60.294l-8.109,1.044l6.546-4.997C58.219,57.465,58.778,58.819,58.946,60.294z"/><path fill="#fdd4b2" d="M54.05,53.687l-3.212,7.651l-1.064-8.277C50.09,53.02,50.42,53,50.75,53 C51.929,53,53.04,53.242,54.05,53.687z"/></g><g><path fill="#fefbd8" d="M50.784,61.284l-3.253,0.419c-0.021-0.149-0.032-0.3-0.032-0.454c0-0.438,0.088-0.857,0.241-1.236 L50.784,61.284z"/><path fill="#daf2dc" d="M50.784,61.284l-1.244,2.982c-0.533-0.212-0.995-0.562-1.342-1.008L50.784,61.284z"/><path fill="#d2e4f1" d="M52.727,63.829c-0.435,0.337-0.958,0.562-1.531,0.642l-0.411-3.186L52.727,63.829z"/><path fill="#edc6e0" d="M54,61.25c0,0.451-0.09,0.878-0.257,1.268l-2.958-1.234l3.194-0.411 C53.992,60.995,54,61.123,54,61.25z"/><path fill="#f3dddd" d="M53.363,59.316l-2.579,1.969l1.266-3.014C52.575,58.499,53.026,58.862,53.363,59.316z"/><path fill="#f9ebcc" d="M50.784,61.284l-2-2.621c0.448-0.342,0.99-0.57,1.581-0.639L50.784,61.284z"/><path fill="#fefad0" d="M50.784,61.284l-3.043-1.271c0.223-0.539,0.584-1.005,1.043-1.35L50.784,61.284z"/><path fill="#fdf8cd" d="M50.784,61.284l-2.587,1.974c-0.35-0.438-0.586-0.971-0.666-1.555L50.784,61.284z"/><path fill="#ccf0de" d="M51.196,64.471C51.05,64.489,50.901,64.5,50.75,64.5c-0.427,0-0.836-0.082-1.21-0.233l1.244-2.982 L51.196,64.471z"/><path fill="#e6cddc" d="M53.743,62.518c-0.22,0.52-0.573,0.971-1.016,1.311l-1.942-2.544L53.743,62.518z"/><path fill="#f7d0d4" d="M53.979,60.873l-3.194,0.411l2.579-1.969C53.692,59.759,53.912,60.292,53.979,60.873z"/><path fill="#fde8d5" d="M52.05,58.271l-1.266,3.014l-0.419-3.261C50.49,58.008,50.62,58,50.75,58 C51.214,58,51.652,58.096,52.05,58.271z"/></g><g><path fill="#1f212b" d="M26.227,88.983c-3.376,0-6.356-2.44-6.906-5.855l-7.311-45.41c-0.042-0.263,0.021-0.531,0.178-0.746 c0.155-0.215,0.391-0.359,0.653-0.4L79.46,26.013c0.543-0.093,1.056,0.284,1.144,0.828l7.311,45.41 c0.294,1.826-0.143,3.658-1.229,5.16c-1.098,1.515-2.725,2.511-4.58,2.805l-54.77,8.68C26.963,88.955,26.593,88.983,26.227,88.983z M14.144,38.39l7.151,44.42c0.435,2.7,3.017,4.544,5.727,4.111l54.771-8.68l0,0c1.327-0.211,2.489-0.922,3.272-2.004 c0.773-1.067,1.084-2.37,0.875-3.668l-7.152-44.426L14.144,38.39z"/><path fill="#1f212b" d="M13,38.559c-0.434,0-0.832-0.283-0.96-0.719l-0.789-2.695c-0.514-1.777-0.303-3.647,0.595-5.268 c0.908-1.64,2.408-2.828,4.222-3.345l53.491-15.234c3.717-1.058,7.609,1.073,8.674,4.756l0.79,2.693 c0.074,0.256,0.044,0.531-0.084,0.765c-0.129,0.233-0.346,0.405-0.603,0.479l-65.063,18.53C13.183,38.547,13.09,38.559,13,38.559z M71.497,13.026c-0.46,0-0.927,0.063-1.391,0.195L16.615,28.456c-1.298,0.37-2.371,1.219-3.02,2.391 c-0.638,1.151-0.789,2.479-0.424,3.738l0.509,1.74l63.139-17.982l-0.507-1.729c0-0.001,0-0.002-0.001-0.004 C75.685,14.441,73.677,13.026,71.497,13.026z"/><path fill="#1f212b" d="M62.84,38.76c-0.173,0-0.336-0.09-0.428-0.241c-0.105-0.174-0.095-0.394,0.026-0.557l7.24-9.75 c0.078-0.105,0.194-0.176,0.323-0.196l9.54-1.51c0.205-0.032,0.4,0.062,0.506,0.235s0.095,0.395-0.026,0.558l-7.25,9.75 c-0.078,0.104-0.194,0.175-0.323,0.195l-9.53,1.51C62.892,38.758,62.865,38.76,62.84,38.76z M70.359,28.972l-6.388,8.603 l8.119-1.286l6.396-8.603L70.359,28.972z"/><path fill="#1f212b" d="M43.77,41.78c-0.173,0-0.336-0.09-0.428-0.241c-0.105-0.174-0.095-0.394,0.026-0.558l7.25-9.75 c0.078-0.104,0.194-0.175,0.323-0.195l9.53-1.511c0.206-0.032,0.401,0.062,0.506,0.235c0.105,0.174,0.095,0.394-0.026,0.558 l-7.25,9.75c-0.078,0.104-0.194,0.175-0.323,0.195l-9.53,1.511C43.821,41.778,43.795,41.78,43.77,41.78z M51.299,31.992 l-6.396,8.603l8.118-1.287l6.396-8.603L51.299,31.992z"/><path fill="#1f212b" d="M24.71,44.8c-0.173,0-0.336-0.09-0.428-0.241c-0.105-0.174-0.095-0.394,0.026-0.557l7.24-9.74 c0.078-0.105,0.194-0.176,0.323-0.196l9.439-1.5c0.2-0.029,0.4,0.062,0.506,0.234c0.105,0.174,0.095,0.394-0.025,0.558l-7.21,9.74 c-0.078,0.104-0.194,0.176-0.324,0.196l-9.47,1.5C24.762,44.798,24.735,44.8,24.71,44.8z M32.229,35.021l-6.387,8.593l8.057-1.276 l6.36-8.593L32.229,35.021z"/><path fill="#1f212b" d="M14.349,46.44c-0.241,0-0.453-0.175-0.492-0.421l-1.35-8.381c-0.021-0.131,0.011-0.265,0.088-0.372 c0.078-0.108,0.196-0.18,0.327-0.201l9.42-1.489c0.205-0.029,0.4,0.062,0.506,0.235s0.095,0.394-0.026,0.557l-7.24,9.739 c-0.078,0.105-0.194,0.176-0.323,0.196l-0.83,0.131C14.401,46.438,14.375,46.44,14.349,46.44z M13.573,37.976l1.19,7.394 l0.137-0.021l6.387-8.592L13.573,37.976z"/><path fill="#1f212b" d="M78.06,19.53c-0.067,0-0.136-0.014-0.2-0.042L65.24,13.968c-0.193-0.085-0.313-0.281-0.299-0.492 c0.015-0.21,0.159-0.389,0.362-0.446l4.39-1.25c0.576-0.165,1.184-0.249,1.807-0.249c2.892,0,5.462,1.917,6.25,4.662l0.789,2.697 c0.055,0.187-0.003,0.388-0.149,0.516C78.297,19.487,78.179,19.53,78.06,19.53z M66.916,13.609l10.363,4.533l-0.489-1.672 c-0.667-2.321-2.842-3.94-5.29-3.94c-0.529,0-1.045,0.07-1.532,0.21L66.916,13.609z"/><path fill="#1f212b" d="M59.49,24.82c-0.068,0-0.137-0.014-0.2-0.042l-12.61-5.521c-0.193-0.085-0.313-0.281-0.299-0.491 c0.015-0.211,0.159-0.39,0.361-0.447l9.271-2.649c0.111-0.032,0.243-0.024,0.348,0.022l12.609,5.52 c0.193,0.085,0.313,0.281,0.299,0.491c-0.015,0.211-0.159,0.39-0.361,0.447l-9.279,2.65C59.583,24.813,59.536,24.82,59.49,24.82z M48.353,18.898l11.174,4.892l7.77-2.22l-11.175-4.892L48.353,18.898z"/><path fill="#1f212b" d="M40.92,30.11c-0.068,0-0.137-0.014-0.2-0.042l-12.621-5.53c-0.192-0.085-0.313-0.281-0.298-0.492 c0.015-0.21,0.159-0.389,0.362-0.447l9.29-2.64c0.111-0.032,0.231-0.024,0.337,0.023l12.61,5.52 c0.193,0.085,0.313,0.281,0.299,0.491c-0.015,0.211-0.159,0.39-0.361,0.447l-9.28,2.65C41.013,30.104,40.966,30.11,40.92,30.11z M29.775,24.181l11.181,4.899l7.771-2.22l-11.173-4.89L29.775,24.181z"/><path fill="#1f212b" d="M22.35,35.4c-0.068,0-0.137-0.014-0.201-0.042l-9.76-4.28c-0.124-0.055-0.222-0.158-0.269-0.286 s-0.039-0.27,0.021-0.392c0.807-1.646,2.286-2.882,4.062-3.391l2.681-0.761c0.111-0.032,0.23-0.024,0.337,0.023l12.62,5.52 c0.193,0.084,0.313,0.281,0.299,0.491c-0.015,0.211-0.159,0.39-0.362,0.447l-9.29,2.65C22.441,35.394,22.396,35.4,22.35,35.4z M13.291,30.382l9.095,3.988l7.779-2.22l-11.182-4.89l-2.507,0.711C15.144,28.354,14.007,29.22,13.291,30.382z"/><path fill="#1f212b" d="M26.263,83.981c-0.55,0-0.959-0.228-1.171-0.381c-0.251-0.18-0.691-0.59-0.806-1.304l-5.478-34.021 c-0.021-0.131,0.011-0.265,0.088-0.372c0.078-0.108,0.196-0.18,0.327-0.201l43.198-6.847c0.268-0.039,0.529,0.143,0.572,0.416 c0.043,0.272-0.144,0.528-0.416,0.572l-42.703,6.768l5.397,33.526c0.058,0.355,0.277,0.56,0.403,0.65 c0.128,0.092,0.395,0.239,0.753,0.179l54.688-8.666c0.266-0.042,0.499-0.186,0.658-0.403c0.158-0.216,0.222-0.48,0.18-0.742 l-2.829-17.577c-0.044-0.272,0.141-0.529,0.414-0.572c0.265-0.053,0.529,0.141,0.572,0.414l2.83,17.577 c0.085,0.524-0.042,1.052-0.355,1.484c-0.315,0.436-0.783,0.723-1.315,0.808l-54.686,8.666 C26.474,83.974,26.365,83.981,26.263,83.981z"/><path fill="#1f212b" d="M78.008,46c-0.241,0-0.453-0.175-0.492-0.421l-0.161-1c-0.044-0.272,0.141-0.528,0.414-0.572 c0.267-0.053,0.528,0.141,0.572,0.414l0.161,1c0.044,0.272-0.141,0.528-0.414,0.572C78.062,45.998,78.034,46,78.008,46z"/><path fill="#1f212b" d="M78.813,51c-0.241,0-0.453-0.175-0.493-0.421l-0.482-3c-0.043-0.272,0.143-0.529,0.415-0.573 c0.265-0.039,0.529,0.142,0.573,0.415l0.482,3c0.043,0.272-0.143,0.529-0.415,0.573C78.866,50.998,78.839,51,78.813,51z"/></g></svg>