<svg xmlns="http://www.w3.org/2000/svg"  viewBox="0 0 100 100" width="100px" height="100px"><path fill="#39c1d7" d="M70,81.921H31c-6.6,0-12-5.4-12-12v-39c0-6.6,5.4-12,12-12h39c6.6,0,12,5.4,12,12v39C82,76.521,76.6,81.921,70,81.921z"/><path fill="#1f212b" d="M69.5,81.921h-39c-6.904,0-12.5-5.596-12.5-12.5v-39c0-6.904,5.596-12.5,12.5-12.5h39c6.904,0,12.5,5.596,12.5,12.5v39C82,76.325,76.404,81.921,69.5,81.921z M19,30.421v39c0,6.351,5.149,11.5,11.5,11.5h39c6.351,0,11.5-5.149,11.5-11.5v-39c0-6.351-5.149-11.5-11.5-11.5h-39C24.149,18.921,19,24.07,19,30.421z"/><path fill="#39c1d7" d="M77,47.921v18.663c0,5.685-4.652,10.337-10.337,10.337H33.337C27.652,76.921,23,72.27,23,66.584V33.258c0-5.685,4.652-10.337,10.337-10.337H67"/><path fill="#1f212b" d="M67.162 77.921H33.837C27.852 77.921 23 73.069 23 67.084V33.758c0-5.985 4.852-10.837 10.837-10.837H67.5c.276 0 .5.224.5.5s-.224.5-.5.5H33.837c-5.433 0-9.837 4.404-9.837 9.837v33.325c0 5.433 4.405 9.838 9.838 9.838h33.325c5.433 0 9.837-4.404 9.837-9.837V48.421c0-.276.224-.5.5-.5s.5.224.5.5v18.662C78 73.069 73.148 77.921 67.162 77.921zM77.5 45.5c-.276 0-.5-.224-.5-.5v-4c0-.276.224-.5.5-.5S78 40.724 78 41v4C78 45.277 77.776 45.5 77.5 45.5zM77.5 39.5c-.276 0-.5-.224-.5-.5v-2c0-.276.224-.5.5-.5S78 36.724 78 37v2C78 39.277 77.776 39.5 77.5 39.5z"/><path fill="#fdfcee" d="M50.878,44.852c0,1.152-0.252,2.19-0.756,3.114s-1.206,1.71-2.106,2.357c-0.9,0.648-1.962,1.146-3.186,1.494c-1.224,0.349-2.544,0.522-3.96,0.522h-1.656v9.468h-3.312V37.832h5.796c1.296,0,2.502,0.144,3.618,0.432c1.116,0.288,2.088,0.727,2.916,1.313c0.828,0.589,1.476,1.32,1.944,2.196C50.644,42.65,50.878,43.676,50.878,44.852z M47.566,44.815c0-0.792-0.156-1.458-0.468-1.998c-0.312-0.54-0.738-0.983-1.278-1.332c-0.54-0.348-1.176-0.6-1.908-0.756c-0.732-0.155-1.506-0.233-2.322-0.233h-2.376v9.18h1.764c0.959,0,1.842-0.108,2.646-0.324c0.804-0.216,1.5-0.534,2.088-0.954c0.588-0.42,1.044-0.93,1.368-1.53C47.404,46.268,47.566,45.584,47.566,44.815z"/><path fill="#1f212b" d="M39.214,62.308h-3.312c-0.276,0-0.5-0.224-0.5-0.5V37.832c0-0.276,0.224-0.5,0.5-0.5h5.796c1.333,0,2.593,0.15,3.743,0.447c1.168,0.302,2.205,0.77,3.08,1.39c0.889,0.633,1.594,1.43,2.096,2.369c0.505,0.945,0.761,2.061,0.761,3.313c0,1.231-0.275,2.36-0.817,3.354c-0.538,0.986-1.296,1.836-2.253,2.524c-0.943,0.679-2.067,1.207-3.341,1.569c-1.262,0.358-2.64,0.541-4.097,0.541h-1.156v8.968C39.714,62.084,39.49,62.308,39.214,62.308z M36.402,61.308h2.312V52.34c0-0.276,0.224-0.5,0.5-0.5h1.656c1.364,0,2.65-0.169,3.823-0.503c1.163-0.331,2.182-0.808,3.03-1.419c0.835-0.601,1.494-1.338,1.959-2.191c0.461-0.846,0.695-1.812,0.695-2.875c0-1.087-0.216-2.043-0.643-2.843c-0.428-0.802-1.032-1.482-1.792-2.024c-0.775-0.549-1.702-0.966-2.751-1.236c-1.068-0.276-2.244-0.416-3.493-0.416h-5.296V61.308z M40.978,50.176h-1.764c-0.276,0-0.5-0.224-0.5-0.5v-9.18c0-0.276,0.224-0.5,0.5-0.5h2.376c0.845,0,1.662,0.082,2.426,0.244c0.789,0.169,1.486,0.446,2.075,0.824c0.605,0.392,1.09,0.896,1.44,1.503c0.355,0.615,0.535,1.371,0.535,2.248c0,0.849-0.184,1.618-0.546,2.289c-0.359,0.665-0.87,1.237-1.518,1.7c-0.635,0.453-1.392,0.8-2.249,1.029C42.91,50.061,41.976,50.176,40.978,50.176z M39.714,49.176h1.264c0.91,0,1.757-0.104,2.517-0.308c0.741-0.198,1.389-0.494,1.927-0.878c0.523-0.373,0.933-0.831,1.219-1.36c0.283-0.523,0.426-1.134,0.426-1.814c0-0.699-0.135-1.287-0.401-1.748c-0.274-0.474-0.639-0.854-1.116-1.162c-0.486-0.312-1.072-0.544-1.741-0.687c-0.696-0.147-1.442-0.223-2.218-0.223h-1.876V49.176z"/><path fill="#fdfcee" d="M64.098,56.876c0,0.815-0.174,1.548-0.522,2.195c-0.348,0.648-0.828,1.201-1.44,1.656c-0.612,0.456-1.338,0.811-2.178,1.062c-0.84,0.252-1.752,0.378-2.736,0.378c-0.432,0-0.888-0.024-1.368-0.072c-0.48-0.049-0.96-0.12-1.44-0.216c-0.48-0.096-0.942-0.21-1.386-0.342c-0.444-0.132-0.822-0.271-1.134-0.414l0.54-2.557c0.624,0.265,1.337,0.504,2.142,0.721c0.804,0.216,1.698,0.323,2.682,0.323c1.031,0,1.901-0.186,2.61-0.558c0.708-0.372,1.062-0.966,1.062-1.782c0-0.384-0.096-0.726-0.288-1.025c-0.192-0.3-0.444-0.564-0.756-0.792c-0.312-0.229-0.679-0.438-1.098-0.631c-0.42-0.191-0.858-0.383-1.314-0.575c-0.625-0.24-1.248-0.51-1.872-0.811c-0.625-0.3-1.194-0.66-1.71-1.08c-0.517-0.419-0.936-0.905-1.26-1.458c-0.324-0.552-0.486-1.211-0.486-1.979c0-0.84,0.174-1.561,0.522-2.16c0.348-0.6,0.804-1.092,1.368-1.477c0.563-0.383,1.218-0.666,1.962-0.846c0.744-0.18,1.512-0.27,2.304-0.27c0.912,0,1.8,0.102,2.664,0.306c0.864,0.204,1.644,0.486,2.34,0.846l-0.54,2.448c-0.696-0.336-1.422-0.594-2.178-0.774c-0.756-0.18-1.518-0.27-2.286-0.27c-0.84,0-1.548,0.144-2.124,0.432c-0.576,0.288-0.864,0.816-0.864,1.584c0,0.36,0.102,0.666,0.306,0.918c0.204,0.252,0.468,0.48,0.792,0.685c0.324,0.204,0.678,0.391,1.062,0.558c0.384,0.168,0.744,0.337,1.08,0.504c0.312,0.145,0.779,0.349,1.404,0.612c0.624,0.265,1.242,0.606,1.854,1.026s1.146,0.941,1.602,1.565C63.87,55.232,64.098,55.988,64.098,56.876z"/><path fill="#1f212b" d="M57.222,62.668c-0.443,0-0.92-0.025-1.418-0.075c-0.5-0.051-1.001-0.125-1.488-0.223c-0.489-0.098-0.971-0.216-1.431-0.353c-0.461-0.137-0.865-0.285-1.201-0.439c-0.212-0.098-0.328-0.329-0.28-0.558l0.54-2.557c0.031-0.146,0.125-0.271,0.258-0.34c0.132-0.07,0.289-0.077,0.427-0.017c0.595,0.252,1.293,0.487,2.077,0.698c0.756,0.203,1.615,0.306,2.552,0.306c0.945,0,1.745-0.168,2.377-0.5c0.542-0.285,0.794-0.711,0.794-1.34c0-0.289-0.068-0.536-0.209-0.756c-0.159-0.247-0.371-0.469-0.63-0.658c-0.283-0.206-0.623-0.401-1.012-0.58c-0.415-0.188-0.849-0.378-1.3-0.568c-0.624-0.24-1.266-0.519-1.895-0.821c-0.655-0.314-1.264-0.699-1.809-1.143c-0.559-0.453-1.021-0.989-1.375-1.593c-0.368-0.627-0.555-1.378-0.555-2.232c0-0.926,0.198-1.737,0.589-2.411c0.384-0.662,0.895-1.213,1.519-1.639c0.614-0.417,1.33-0.727,2.126-0.919c1.668-0.402,3.521-0.361,5.2,0.036c0.898,0.212,1.724,0.511,2.455,0.888c0.201,0.104,0.308,0.331,0.259,0.552l-0.54,2.448c-0.033,0.149-0.132,0.275-0.27,0.343c-0.137,0.067-0.297,0.067-0.436,0c-0.66-0.318-1.359-0.566-2.077-0.738c-1.46-0.348-3.087-0.37-4.07,0.123c-0.252,0.126-0.588,0.381-0.588,1.137c0,0.244,0.063,0.441,0.195,0.604c0.168,0.209,0.394,0.402,0.67,0.576c0.304,0.191,0.639,0.367,0.995,0.521c0.393,0.172,0.76,0.345,1.103,0.515c0.296,0.138,0.759,0.339,1.376,0.6c0.654,0.277,1.308,0.64,1.942,1.075c0.657,0.45,1.236,1.017,1.723,1.683c0.518,0.711,0.78,1.573,0.78,2.563c0,0.896-0.196,1.713-0.582,2.432c-0.382,0.712-0.914,1.324-1.582,1.821c-0.657,0.489-1.442,0.873-2.333,1.14C59.219,62.535,58.25,62.668,57.222,62.668z M52.469,60.824c0.21,0.081,0.445,0.159,0.701,0.235c0.43,0.128,0.877,0.238,1.342,0.331c0.456,0.091,0.925,0.161,1.393,0.209c1.514,0.148,2.771,0.053,3.91-0.287c0.779-0.234,1.46-0.565,2.023-0.985c0.549-0.408,0.986-0.91,1.298-1.491c0.307-0.571,0.462-1.23,0.462-1.959c0-0.785-0.192-1.431-0.588-1.974c-0.419-0.574-0.917-1.062-1.48-1.448c-0.58-0.397-1.174-0.728-1.767-0.979c-0.631-0.266-1.104-0.473-1.419-0.619c-0.341-0.169-0.694-0.334-1.07-0.499c-0.401-0.174-0.781-0.374-1.128-0.593c-0.369-0.232-0.677-0.499-0.914-0.793c-0.277-0.342-0.417-0.757-0.417-1.232c0-1.207,0.62-1.771,1.141-2.031c1.205-0.604,3.059-0.603,4.749-0.201c0.583,0.14,1.155,0.325,1.707,0.554l0.323-1.464c-0.571-0.263-1.203-0.476-1.882-0.637c-1.527-0.36-3.218-0.404-4.735-0.036c-0.68,0.164-1.285,0.424-1.799,0.773c-0.499,0.34-0.908,0.781-1.216,1.313c-0.302,0.52-0.455,1.162-0.455,1.909c0,0.674,0.14,1.255,0.417,1.727c0.293,0.5,0.678,0.944,1.144,1.322c0.485,0.396,1.027,0.737,1.611,1.018c0.605,0.292,1.222,0.56,1.835,0.795c0.475,0.2,0.917,0.394,1.341,0.587c0.451,0.207,0.85,0.437,1.186,0.683c0.359,0.262,0.656,0.573,0.882,0.925c0.244,0.382,0.367,0.817,0.367,1.296c0,0.998-0.459,1.768-1.329,2.225c-0.777,0.408-1.734,0.615-2.843,0.615c-1.025,0-1.971-0.114-2.812-0.341c-0.595-0.16-1.146-0.334-1.646-0.52L52.469,60.824z"/><path fill="#1f212b" d="M70,81.921H31c-7.18,0-13-5.82-13-13v-39c0-7.18,5.82-13,13-13h39c7.18,0,13,5.82,13,13v39C83,76.101,77.18,81.921,70,81.921z M20,29.921v39c0,6.075,4.925,11,11,11h39c6.075,0,11-4.925,11-11v-39c0-6.075-4.925-11-11-11H31C24.925,18.921,20,23.846,20,29.921z"/></svg>